<?xml version="1.0" encoding="UTF-8"?>
<svg xmlns="http://www.w3.org/2000/svg" version="1.1" viewBox="0 0 1920 1920">
  <!-- Generator: Adobe Illustrator 30.2.0, SVG Export Plug-In . SVG Version: 2.1.1 Build 105)  -->
  <defs>
    <style>
      .st0 {
        fill: #0d0d0d;
      }

      .st1 {
        stroke: #353535;
      }

      .st1, .st2 {
        stroke-miterlimit: 10;
        stroke-width: 100px;
      }

      .st1, .st2, .st3 {
        fill: none;
        stroke-linecap: round;
      }

      .st2, .st3 {
        stroke: #fff;
      }

      .st4 {
        display: none;
      }

      .st3 {
        stroke-linejoin: round;
        stroke-width: 120px;
      }
    </style>
  </defs>
  <g id="Layer_2" class="st4">
    <rect class="st0" x="-4.73" width="1929.29" height="1927.99"/>
  </g>
  <g id="Layer_1">
    <path class="st3" d="M1032.27,456.36c118.62-118.62,312.75-118.63,431.38,0,59.31,59.31,88.97,137.5,88.98,215.69,0,78.19-29.66,156.38-88.98,215.69"/>
    <path class="st3" d="M887.73,1463.64c-118.62,118.62-312.75,118.63-431.38,0-59.31-59.31-88.97-137.5-88.98-215.69,0-78.19,29.66-156.38,88.98-215.69"/>
    <path class="st1" d="M1251.12,668.88l-63.03,19.09c-100.02,30.29-178.29,108.55-208.57,208.57l-38.17,126.06c-30.29,100.02-108.55,178.29-208.57,208.57l-63.03,19.09"/>
    <path class="st2" d="M669.74,1250.26l2.15-126.05c.71-41.57,16.59-81.67,45.38-111.66,1.01-1.05,2.02-2.08,3.05-3.11,30.31-30.15,71.37-47,114.11-47.73l251.99-4.3c42.74-.73,83.8-17.58,114.11-47.73,1.03-1.02,2.05-2.06,3.05-3.11,28.8-29.99,44.67-70.09,45.38-111.66l2.15-126.05"/>
  </g>
</svg>